<svg width="32" height="32" viewBox="0 0 32 32" fill="none" xmlns="http://www.w3.org/2000/svg">
<g id="Frame" clip-path="url(#clip0_1_245)">
<path id="Vector" d="M14 22.6667H5.33332V20H14C14.8517 20.0003 15.687 20.2337 16.4155 20.6748C17.144 21.1159 17.7379 21.748 18.1329 22.5026C18.5278 23.2571 18.7087 24.1054 18.6561 24.9554C18.6034 25.8054 18.3191 26.6248 17.8339 27.3248C17.3488 28.0248 16.6814 28.5787 15.904 28.9265C15.1266 29.2743 14.2688 29.4027 13.4236 29.2978C12.5784 29.1929 11.7781 28.8588 11.1092 28.3315C10.4404 27.8042 9.92862 27.104 9.62932 26.3067L12.1267 25.3693C12.2549 25.7111 12.4742 26.0112 12.7608 26.2372C13.0475 26.4632 13.3905 26.6064 13.7527 26.6514C14.1149 26.6964 14.4825 26.6414 14.8157 26.4924C15.1489 26.3434 15.435 26.106 15.6429 25.806C15.8508 25.506 15.9727 25.1549 15.9953 24.7906C16.0179 24.4263 15.9404 24.0627 15.7712 23.7393C15.6019 23.4159 15.3474 23.145 15.0352 22.9559C14.723 22.7669 14.365 22.6668 14 22.6667ZM6.66666 14.6667H24.6667C25.5183 14.667 26.3537 14.9003 27.0822 15.3415C27.8107 15.7826 28.4046 16.4147 28.7995 17.1692C29.1945 17.9238 29.3754 18.772 29.3227 19.6221C29.27 20.4721 28.9857 21.2915 28.5006 21.9915C28.0155 22.6915 27.3481 23.2454 26.5706 23.5932C25.7932 23.941 24.9355 24.0694 24.0903 23.9645C23.2451 23.8596 22.4447 23.5254 21.7759 22.9982C21.1071 22.4709 20.5953 21.7707 20.296 20.9733L22.7933 20.036C22.9216 20.3777 23.1409 20.6779 23.4275 20.9039C23.7141 21.1299 24.0571 21.2731 24.4193 21.3181C24.7816 21.3631 25.1492 21.3081 25.4824 21.1591C25.8156 21.01 26.1016 20.7727 26.3096 20.4727C26.5175 20.1727 26.6394 19.8215 26.662 19.4572C26.6846 19.0929 26.6071 18.7294 26.4378 18.406C26.2686 18.0826 26.0141 17.8117 25.7019 17.6226C25.3897 17.4335 25.0317 17.3335 24.6667 17.3333H6.66666C5.60579 17.3333 4.58838 16.9119 3.83823 16.1618C3.08808 15.4116 2.66666 14.3942 2.66666 13.3333C2.66666 12.2725 3.08808 11.2551 3.83823 10.5049C4.58838 9.75477 5.60579 9.33334 6.66666 9.33334H18C18.365 9.33319 18.723 9.23315 19.0352 9.04407C19.3474 8.85499 19.6019 8.58408 19.7712 8.26069C19.9404 7.93729 20.0179 7.57375 19.9953 7.20945C19.9727 6.84515 19.8508 6.49398 19.6429 6.194C19.435 5.89401 19.1489 5.65665 18.8157 5.50763C18.4825 5.3586 18.1149 5.30361 17.7527 5.34859C17.3905 5.39357 17.0475 5.53682 16.7608 5.76282C16.4742 5.98882 16.2549 6.28894 16.1267 6.63068L13.6293 5.69468C14.014 4.67175 14.7453 3.8162 15.6959 3.27709C16.6465 2.73798 17.7562 2.5495 18.8315 2.74447C19.9068 2.93945 20.8796 3.50553 21.5804 4.34408C22.2813 5.18263 22.6657 6.24049 22.6667 7.33334C22.6667 8.57102 22.175 9.758 21.2998 10.6332C20.4247 11.5083 19.2377 12 18 12H6.66666C6.31303 12 5.9739 12.1405 5.72385 12.3905C5.4738 12.6406 5.33332 12.9797 5.33332 13.3333C5.33332 13.687 5.4738 14.0261 5.72385 14.2762C5.9739 14.5262 6.31303 14.6667 6.66666 14.6667Z" fill="#5B59E2"/>
</g>
<defs>
<clipPath id="clip0_1_245">
<rect width="32" height="32" fill="white"/>
</clipPath>
</defs>
</svg>
