<svg width="32" height="32" viewBox="0 0 32 32" fill="none" xmlns="http://www.w3.org/2000/svg">
<g id="Frame" clip-path="url(#clip0_1_80)">
<path id="Vector" d="M4 4H28C28.3536 4 28.6928 4.14048 28.9428 4.39052C29.1929 4.64057 29.3333 4.97971 29.3333 5.33333V26.6667C29.3333 27.0203 29.1929 27.3594 28.9428 27.6095C28.6928 27.8595 28.3536 28 28 28H4C3.64638 28 3.30724 27.8595 3.05719 27.6095C2.80714 27.3594 2.66666 27.0203 2.66666 26.6667V5.33333C2.66666 4.97971 2.80714 4.64057 3.05719 4.39052C3.30724 4.14048 3.64638 4 4 4ZM26.6667 18.6667H22.112C21.5932 19.8562 20.7386 20.8685 19.6529 21.5794C18.5673 22.2903 17.2977 22.669 16 22.669C14.7023 22.669 13.4327 22.2903 12.3471 21.5794C11.2614 20.8685 10.4068 19.8562 9.888 18.6667H5.33333V25.3333H26.6667V18.6667ZM26.6667 16V6.66667H5.33333V16H12C12 17.0609 12.4214 18.0783 13.1716 18.8284C13.9217 19.5786 14.9391 20 16 20C17.0609 20 18.0783 19.5786 18.8284 18.8284C19.5786 18.0783 20 17.0609 20 16H26.6667Z" fill="#BDBDBD"/>
</g>
<defs>
<clipPath id="clip0_1_80">
<rect width="32" height="32" fill="white"/>
</clipPath>
</defs>
</svg>
