<svg width="18" height="18" viewBox="0 0 18 18" fill="none" xmlns="http://www.w3.org/2000/svg">
<g id="Frame" clip-path="url(#clip0_1_45)">
<g id="Vector">
<mask id="path-1-inside-1_1_45" fill="white">
<path d="M3.75 1.5H14.25C14.4489 1.5 14.6397 1.57902 14.7803 1.71967C14.921 1.86032 15 2.05109 15 2.25V16.6073C15.0001 16.6743 14.9822 16.7402 14.9482 16.7979C14.9142 16.8557 14.8653 16.9033 14.8066 16.9358C14.7479 16.9683 14.6816 16.9844 14.6146 16.9826C14.5476 16.9807 14.4823 16.9609 14.4255 16.9252L9 13.5225L3.5745 16.9245C3.51778 16.9601 3.45254 16.9799 3.38558 16.9818C3.31861 16.9837 3.25236 16.9676 3.19372 16.9352C3.13508 16.9029 3.08618 16.8554 3.05211 16.7977C3.01804 16.74 3.00005 16.6742 3 16.6073V2.25C3 2.05109 3.07902 1.86032 3.21967 1.71967C3.36032 1.57902 3.55109 1.5 3.75 1.5Z"/>
</mask>
<path d="M3.75 1.5V0.5V1.5ZM14.25 1.5V0.5V1.5ZM15 16.6073L14 16.6072L14 16.6085L15 16.6073ZM14.4255 16.9252L14.9575 16.0785L14.9568 16.0781L14.4255 16.9252ZM9 13.5225L9.53132 12.6753L9.00006 12.3421L8.46876 12.6753L9 13.5225ZM3.5745 16.9245L3.04326 16.0773L3.0425 16.0778L3.5745 16.9245ZM3 16.6073H2L2 16.608L3 16.6073ZM3.75 2.5H14.25V0.5H3.75V2.5ZM14.25 2.5C14.1837 2.5 14.1201 2.47366 14.0732 2.42678L15.4874 1.01256C15.1592 0.684374 14.7141 0.5 14.25 0.5V2.5ZM14.0732 2.42678C14.0263 2.37989 14 2.3163 14 2.25H16C16 1.78587 15.8156 1.34075 15.4874 1.01256L14.0732 2.42678ZM14 2.25V16.6073H16V2.25H14ZM14 16.6085C13.9999 16.4968 14.0297 16.387 14.0864 16.2907L15.81 17.3052C15.9347 17.0933 16.0003 16.8519 16 16.606L14 16.6085ZM14.0864 16.2907C14.1431 16.1944 14.2245 16.115 14.3223 16.0609L15.2909 17.8107C15.506 17.6917 15.6853 17.5171 15.81 17.3052L14.0864 16.2907ZM14.3223 16.0609C14.4201 16.0068 14.5306 15.9799 14.6423 15.983L14.5869 17.9822C14.8327 17.989 15.0758 17.9298 15.2909 17.8107L14.3223 16.0609ZM14.6423 15.983C14.754 15.9861 14.8629 16.0191 14.9575 16.0785L13.8935 17.772C14.1017 17.9028 14.3411 17.9754 14.5869 17.9822L14.6423 15.983ZM14.9568 16.0781L9.53132 12.6753L8.46868 14.3697L13.8942 17.7724L14.9568 16.0781ZM8.46876 12.6753L3.04326 16.0773L4.10574 17.7717L9.53124 14.3697L8.46876 12.6753ZM3.0425 16.0778C3.13704 16.0184 3.24576 15.9854 3.35737 15.9822L3.41378 17.9814C3.65932 17.9745 3.89851 17.9019 4.1065 17.7712L3.0425 16.0778ZM3.35737 15.9822C3.46899 15.9791 3.5794 16.0059 3.67713 16.0598L2.71031 17.8106C2.92533 17.9294 3.16824 17.9884 3.41378 17.9814L3.35737 15.9822ZM3.67713 16.0598C3.77486 16.1138 3.85636 16.193 3.91315 16.2891L2.19108 17.3062C2.316 17.5177 2.49529 17.6919 2.71031 17.8106L3.67713 16.0598ZM3.91315 16.2891C3.96993 16.3853 3.99992 16.4949 4 16.6065L2 16.608C2.00018 16.8536 2.06616 17.0947 2.19108 17.3062L3.91315 16.2891ZM4 16.6073V2.25H2V16.6073H4ZM4 2.25C4 2.3163 3.97366 2.37989 3.92678 2.42678L2.51256 1.01256C2.18437 1.34075 2 1.78587 2 2.25H4ZM3.92678 2.42678C3.87989 2.47366 3.8163 2.5 3.75 2.5V0.5C3.28587 0.5 2.84075 0.684375 2.51256 1.01256L3.92678 2.42678Z" fill="#5D5FEF" mask="url(#path-1-inside-1_1_45)"/>
</g>
</g>
<defs>
<clipPath id="clip0_1_45">
<rect width="18" height="18" fill="white"/>
</clipPath>
</defs>
</svg>
