<svg width="32" height="32" viewBox="0 0 32 32" fill="none" xmlns="http://www.w3.org/2000/svg">
<g id="Frame" clip-path="url(#clip0_1_74)">
<path id="Vector" d="M6.66668 2.66666H25.3333C25.687 2.66666 26.0261 2.80713 26.2762 3.05718C26.5262 3.30723 26.6667 3.64637 26.6667 3.99999V29.524C26.6668 29.6432 26.635 29.7603 26.5745 29.863C26.5141 29.9657 26.4272 30.0504 26.3229 30.1081C26.2186 30.1658 26.1007 30.1945 25.9815 30.1912C25.8624 30.1879 25.7463 30.1527 25.6453 30.0893L16 24.04L6.35468 30.088C6.25383 30.1513 6.13786 30.1865 6.01881 30.1899C5.89977 30.1933 5.78199 30.1647 5.67774 30.1071C5.57348 30.0495 5.48655 29.9651 5.42599 29.8625C5.36542 29.76 5.33343 29.6431 5.33334 29.524V3.99999C5.33334 3.64637 5.47382 3.30723 5.72387 3.05718C5.97392 2.80713 6.31305 2.66666 6.66668 2.66666ZM24 5.33332H8.00001V25.9093L16 20.8947L24 25.9093V5.33332Z" fill="#BDBDBD"/>
</g>
<defs>
<clipPath id="clip0_1_74">
<rect width="32" height="32" fill="white"/>
</clipPath>
</defs>
</svg>
