<svg width="32" height="32" viewBox="0 0 32 32" fill="none" xmlns="http://www.w3.org/2000/svg">
<g id="Frame" clip-path="url(#clip0_1_71)">
<path id="Vector" d="M26.6667 26.6667C26.6667 27.0203 26.5262 27.3595 26.2762 27.6095C26.0261 27.8595 25.687 28 25.3333 28H6.66668C6.31305 28 5.97392 27.8595 5.72387 27.6095C5.47382 27.3595 5.33334 27.0203 5.33334 26.6667V14.6667H1.33334L15.1027 2.14936C15.3482 1.926 15.6681 1.80222 16 1.80222C16.3319 1.80222 16.6519 1.926 16.8973 2.14936L30.6667 14.6667H26.6667V26.6667ZM10 17.3334C10 18.9247 10.6322 20.4508 11.7574 21.576C12.8826 22.7012 14.4087 23.3334 16 23.3334C17.5913 23.3334 19.1174 22.7012 20.2426 21.576C21.3679 20.4508 22 18.9247 22 17.3334H19.3333C19.3333 18.2174 18.9822 19.0653 18.357 19.6904C17.7319 20.3155 16.8841 20.6667 16 20.6667C15.116 20.6667 14.2681 20.3155 13.643 19.6904C13.0179 19.0653 12.6667 18.2174 12.6667 17.3334H10Z" fill="#5B59E2"/>
</g>
<defs>
<clipPath id="clip0_1_71">
<rect width="32" height="32" fill="white"/>
</clipPath>
</defs>
</svg>
