<svg width="32" height="32" viewBox="0 0 32 32" fill="none" xmlns="http://www.w3.org/2000/svg">
<g id="Frame" clip-path="url(#clip0_1_239)">
<path id="Vector" d="M16.9427 23.724C18.0453 24.8267 19.06 25.3333 20 25.3333C20.504 25.3333 20.9067 25.244 21.6493 24.9653L22.172 24.7627C23.572 24.2 24.2787 24 25.3333 24C26.952 24 28.5053 24.7267 29.9813 26.1067L30.276 26.3907L28.3907 28.276C27.288 27.1733 26.2733 26.6667 25.3333 26.6667C24.8293 26.6667 24.4267 26.756 23.684 27.0347L23.1613 27.2373C21.7613 27.7987 21.0547 28 20 28C18.3813 28 16.828 27.2733 15.352 25.8933L15.0573 25.6093L16.9427 23.724ZM12 4C12 5.06087 12.4214 6.07828 13.1716 6.82843C13.9217 7.57857 14.9391 8 16 8C17.0609 8 18.0783 7.57857 18.8284 6.82843C19.5786 6.07828 20 5.06087 20 4H28C28.3536 4 28.6928 4.14048 28.9428 4.39052C29.1929 4.64057 29.3333 4.97971 29.3333 5.33333V14.6667C29.3333 15.0203 29.1929 15.3594 28.9428 15.6095C28.6928 15.8595 28.3536 16 28 16H22.664V13.3333L26.6667 13.332V6.66533H22.1107L22.088 6.72C21.5824 7.85047 20.772 8.81783 19.7476 9.51371C18.7232 10.2096 17.5252 10.6065 16.288 10.66L16 10.6667C14.7125 10.6668 13.4526 10.2942 12.3722 9.59383C11.2919 8.89349 10.4374 7.89537 9.91201 6.72L9.88801 6.66667H5.33334V13.3333L9.33201 13.332V25.3333H13.3333V28H8.00001C7.64638 28 7.30724 27.8595 7.0572 27.6095C6.80715 27.3594 6.66667 27.0203 6.66667 26.6667L6.66534 15.9987L4.00001 16C3.64638 16 3.30724 15.8595 3.0572 15.6095C2.80715 15.3594 2.66667 15.0203 2.66667 14.6667V5.33333C2.66667 4.97971 2.80715 4.64057 3.0572 4.39052C3.30724 4.14048 3.64638 4 4.00001 4H12ZM16.9427 18.3907C18.0453 19.4933 19.06 20 20 20C20.504 20 20.9067 19.9107 21.6493 19.632L22.172 19.4293C23.572 18.8667 24.2787 18.6667 25.3333 18.6667C26.952 18.6667 28.5053 19.3933 29.9813 20.7733L30.276 21.0573L28.3907 22.9427C27.288 21.84 26.2733 21.3333 25.3333 21.3333C24.8293 21.3333 24.4267 21.4227 23.684 21.7013L23.1613 21.904C21.7613 22.4653 21.0547 22.6667 20 22.6667C18.3813 22.6667 16.828 21.94 15.352 20.56L15.0573 20.276L16.9427 18.3907Z" fill="#5B59E2"/>
</g>
<defs>
<clipPath id="clip0_1_239">
<rect width="32" height="32" fill="white"/>
</clipPath>
</defs>
</svg>
