<svg width="32" height="32" viewBox="0 0 32 32" fill="none" xmlns="http://www.w3.org/2000/svg">
<g id="Frame" clip-path="url(#clip0_1_77)">
<path id="Vector" d="M26.6667 29.3333H5.33333C4.97971 29.3333 4.64057 29.1929 4.39052 28.9428C4.14048 28.6928 4 28.3536 4 28V3.99999C4 3.64637 4.14048 3.30723 4.39052 3.05718C4.64057 2.80713 4.97971 2.66666 5.33333 2.66666H26.6667C27.0203 2.66666 27.3594 2.80713 27.6095 3.05718C27.8595 3.30723 28 3.64637 28 3.99999V28C28 28.3536 27.8595 28.6928 27.6095 28.9428C27.3594 29.1929 27.0203 29.3333 26.6667 29.3333ZM25.3333 26.6667V5.33332H6.66667V26.6667H25.3333ZM10.6667 12H21.3333V14.6667H10.6667V12ZM10.6667 17.3333H21.3333V20H10.6667V17.3333Z" fill="#BDBDBD"/>
</g>
<defs>
<clipPath id="clip0_1_77">
<rect width="32" height="32" fill="white"/>
</clipPath>
</defs>
</svg>
