<svg width="32" height="32" viewBox="0 0 32 32" fill="none" xmlns="http://www.w3.org/2000/svg">
<g id="Frame" clip-path="url(#clip0_1_227)">
<path id="Vector" d="M25.3333 26.6667H6.66667V28C6.66667 28.3536 6.52619 28.6928 6.27614 28.9428C6.02609 29.1929 5.68696 29.3333 5.33333 29.3333H4C3.64638 29.3333 3.30724 29.1929 3.05719 28.9428C2.80714 28.6928 2.66667 28.3536 2.66667 28V14.6667L5.97333 6.94933C6.1791 6.46933 6.52128 6.06031 6.95741 5.77304C7.39354 5.48576 7.90442 5.33286 8.42667 5.33333H23.5733C24.0951 5.33339 24.6054 5.48652 25.041 5.77377C25.4767 6.06102 25.8184 6.46975 26.024 6.94933L29.3333 14.6667V28C29.3333 28.3536 29.1929 28.6928 28.9428 28.9428C28.6928 29.1929 28.3536 29.3333 28 29.3333H26.6667C26.313 29.3333 25.9739 29.1929 25.7239 28.9428C25.4738 28.6928 25.3333 28.3536 25.3333 28V26.6667ZM26.6667 17.3333H5.33333V24H26.6667V17.3333ZM5.568 14.6667H26.432L23.5747 8H8.42667L5.56933 14.6667H5.568ZM8.66667 22.6667C8.13624 22.6667 7.62753 22.4559 7.25245 22.0809C6.87738 21.7058 6.66667 21.1971 6.66667 20.6667C6.66667 20.1362 6.87738 19.6275 7.25245 19.2524C7.62753 18.8774 8.13624 18.6667 8.66667 18.6667C9.1971 18.6667 9.70581 18.8774 10.0809 19.2524C10.456 19.6275 10.6667 20.1362 10.6667 20.6667C10.6667 21.1971 10.456 21.7058 10.0809 22.0809C9.70581 22.4559 9.1971 22.6667 8.66667 22.6667ZM23.3333 22.6667C22.8029 22.6667 22.2942 22.4559 21.9191 22.0809C21.5441 21.7058 21.3333 21.1971 21.3333 20.6667C21.3333 20.1362 21.5441 19.6275 21.9191 19.2524C22.2942 18.8774 22.8029 18.6667 23.3333 18.6667C23.8638 18.6667 24.3725 18.8774 24.7475 19.2524C25.1226 19.6275 25.3333 20.1362 25.3333 20.6667C25.3333 21.1971 25.1226 21.7058 24.7475 22.0809C24.3725 22.4559 23.8638 22.6667 23.3333 22.6667Z" fill="#5B59E2"/>
</g>
<defs>
<clipPath id="clip0_1_227">
<rect width="32" height="32" fill="white"/>
</clipPath>
</defs>
</svg>
