<svg width="32" height="32" viewBox="0 0 32 32" fill="none" xmlns="http://www.w3.org/2000/svg">
<g id="Frame" clip-path="url(#clip0_1_233)">
<path id="Vector" d="M0.919983 9.32934C5.18544 5.87377 10.5104 3.99189 16 4.00001C21.7133 4.00001 26.96 5.99601 31.08 9.32934L29.4053 11.404C25.6136 8.33211 20.8799 6.65926 16 6.66668C10.9213 6.66668 6.25865 8.44001 2.59465 11.404L0.919983 9.32934ZM5.10798 14.516C8.18878 12.02 12.035 10.6607 16 10.6667C20.1253 10.6667 23.9146 12.108 26.892 14.5147L25.216 16.5893C22.6091 14.4778 19.3548 13.328 16 13.3333C12.5093 13.3333 9.30265 14.5533 6.78398 16.5893L5.10798 14.5147V14.516ZM9.29732 19.7027C11.1931 18.1665 13.56 17.3299 16 17.3333C18.5386 17.3333 20.8706 18.22 22.7026 19.7013L21.0266 21.776C19.6048 20.6243 17.8298 19.9972 16 20C14.096 20 12.3466 20.6653 10.9733 21.776L9.29732 19.7013V19.7027ZM13.4866 24.8893C14.1974 24.313 15.0849 23.9989 16 24C16.952 24 17.8266 24.3333 18.5133 24.888L16 28L13.4866 24.888V24.8893Z" fill="#5B59E2"/>
</g>
<defs>
<clipPath id="clip0_1_233">
<rect width="32" height="32" fill="white"/>
</clipPath>
</defs>
</svg>
